<svg width="19" height="12" viewBox="0 0 19 12" fill="none" xmlns="http://www.w3.org/2000/svg">
<path fill-rule="evenodd" clip-rule="evenodd" d="M2.66596 0.736145H0.680681C0.113453 0.736145 0 1.00065 0 1.29224C0 1.81311 0.673059 4.39633 3.13387 7.81284C4.77441 10.146 7.08576 11.4108 9.18905 11.4108C10.451 11.4108 10.6071 11.1299 10.6071 10.6461V8.88261C10.6071 8.32079 10.7267 8.20865 11.1262 8.20865C11.4207 8.20865 11.9255 8.3545 13.1033 9.47944C14.4495 10.8127 14.6714 11.4108 15.4285 11.4108H17.4138C17.981 11.4108 18.2646 11.1299 18.101 10.5756C17.922 10.0231 17.2793 9.22139 16.4265 8.27118C15.9638 7.72952 15.2697 7.14624 15.0594 6.85454C14.7649 6.47957 14.849 6.31288 15.0594 5.97961C15.0594 5.97961 17.4781 2.60472 17.7305 1.45899C17.8567 1.04228 17.7305 0.736145 17.1302 0.736145H15.1449C14.6401 0.736145 14.4074 1.00065 14.2811 1.29224C14.2811 1.29224 13.2716 3.72966 11.8414 5.31294C11.3786 5.77122 11.1683 5.91707 10.9159 5.91707C10.7897 5.91707 10.6071 5.77123 10.6071 5.35463V1.45899C10.6071 0.958965 10.4606 0.736145 10.0399 0.736145H6.92011C6.6047 0.736145 6.41495 0.968179 6.41495 1.18813C6.41495 1.66209 7.13005 1.77142 7.20377 3.10469V6.00045C7.20377 6.63531 7.08797 6.75043 6.83562 6.75043C6.16259 6.75043 4.52545 4.30211 3.55448 1.50062C3.36422 0.9561 3.17333 0.736145 2.66596 0.736145Z" fill="#989898"/>
</svg>
