<svg width="19" height="17" viewBox="0 0 19 17" fill="none" xmlns="http://www.w3.org/2000/svg">
<path d="M1 3.09032H1.0173M1.0173 3.09032H6.40963M1.0173 3.09032C1 3.37376 1 3.72317 1 4.17242V12.8278C1 13.8377 1 14.342 1.19654 14.7277C1.36942 15.067 1.64507 15.3436 1.98437 15.5165C2.36972 15.7128 2.87444 15.7128 3.88238 15.7128L6.40963 15.7128M1.0173 3.09032C1.03889 2.73661 1.08743 2.48561 1.19654 2.27148C1.36942 1.93218 1.64507 1.65653 1.98437 1.48365C2.3701 1.28711 2.87542 1.28711 3.88531 1.28711H14.3439C15.3538 1.28711 15.8581 1.28711 16.2438 1.48365C16.5831 1.65653 16.8597 1.93218 17.0326 2.27148C17.1417 2.48561 17.1901 2.73661 17.2117 3.09032M6.40963 3.09032H17.2117M6.40963 3.09032V15.7128M17.2117 3.09032H17.2289M17.2117 3.09032C17.2289 3.37314 17.2289 3.72163 17.2289 4.16946L17.2289 12.8304C17.2289 13.8384 17.2289 14.3423 17.0326 14.7277C16.8597 15.067 16.5831 15.3436 16.2438 15.5165C15.8585 15.7128 15.3545 15.7128 14.3465 15.7128H6.40963" stroke="#293843" stroke-width="1.6" stroke-linecap="round" stroke-linejoin="round"/>
</svg>
