<svg width="17" height="19" viewBox="0 0 17 19" fill="none" xmlns="http://www.w3.org/2000/svg">
<path d="M5.18375 0.193403C4.29567 0.238296 3.6892 0.390144 3.15902 0.613355C2.61032 0.842469 2.14524 1.14992 1.6825 1.6475C1.21977 2.14507 0.934813 2.64372 0.722475 3.23251C0.516981 3.80181 0.377759 4.45213 0.33853 5.40417C0.299301 6.35622 0.29062 6.66224 0.29496 9.09074C0.299301 11.5192 0.309317 11.8236 0.352385 12.7777C0.394786 13.729 0.536011 14.3786 0.744343 14.9468C0.958518 15.5347 1.24514 16.0328 1.70971 16.5288C2.17429 17.0248 2.63936 17.3293 3.19024 17.5572C3.72109 17.777 4.32822 17.9269 5.21664 17.9686C6.10505 18.0102 6.39101 18.0199 8.65695 18.0153C10.9229 18.0106 11.2082 17.9999 12.0984 17.9546C12.9887 17.9094 13.5918 17.757 14.1223 17.5348C14.671 17.3048 15.1363 16.9983 15.5988 16.5003C16.0614 16.0024 16.3462 15.5034 16.5584 14.9143C16.764 14.3455 16.9038 13.695 16.9423 12.7439C16.9812 11.7893 16.9904 11.4845 16.9861 9.0564C16.9817 6.62826 16.9715 6.32384 16.9293 5.37019C16.8871 4.41653 16.7457 3.7689 16.5375 3.20032C16.323 2.61242 16.0367 2.11467 15.5723 1.61834C15.1079 1.12202 14.6418 0.817071 14.0921 0.590283C13.5609 0.370112 12.9541 0.220052 12.0657 0.178916C11.1773 0.137779 10.8913 0.127226 8.62457 0.131877C6.35779 0.136527 6.074 0.146901 5.18375 0.193403ZM5.28124 16.3598C4.46744 16.3219 4.02557 16.177 3.7311 16.0557C3.34115 15.8947 3.06337 15.7002 2.7699 15.3888C2.47644 15.0774 2.29615 14.7787 2.14391 14.3618C2.02956 14.0463 1.89184 13.5734 1.85378 12.7015C1.81238 11.7591 1.8037 11.4761 1.79886 9.08859C1.79402 6.70105 1.80253 6.41846 1.84109 5.47571C1.87581 4.60451 2.01186 4.13054 2.12488 3.81522C2.27512 3.39688 2.45607 3.0998 2.74737 2.78555C3.03867 2.4713 3.31661 2.27778 3.70606 2.11467C4.0002 1.99161 4.44157 1.84531 5.25503 1.80382C6.13527 1.7591 6.39902 1.75016 8.62707 1.74497C10.8551 1.73979 11.1195 1.74873 12.0001 1.79022C12.8132 1.82814 13.2558 1.97248 13.5497 2.09428C13.9399 2.25525 14.2175 2.44859 14.5108 2.76123C14.8041 3.07387 14.9849 3.37059 15.1371 3.78875C15.2521 4.103 15.3887 4.57571 15.4271 5.44781C15.469 6.39092 15.4785 6.67369 15.4825 9.06069C15.4865 11.4477 15.4787 11.7312 15.4401 12.6736C15.4045 13.5455 15.2697 14.0191 15.1563 14.3349C15.0061 14.7526 14.8249 15.0504 14.5335 15.3644C14.242 15.6785 13.9644 15.872 13.5748 16.0351C13.281 16.158 12.8391 16.3047 12.0263 16.3462C11.1461 16.3905 10.8823 16.3998 8.65345 16.405C6.42456 16.4102 6.16164 16.4005 5.28141 16.3598M12.0856 4.29402C12.0859 4.50628 12.145 4.71367 12.2553 4.88995C12.3657 5.06624 12.5223 5.2035 12.7055 5.28439C12.8887 5.36527 13.0901 5.38614 13.2843 5.34436C13.4786 5.30258 13.6569 5.20002 13.7967 5.04965C13.9365 4.89929 14.0316 4.70787 14.0699 4.49961C14.1082 4.29135 14.088 4.0756 14.0118 3.87966C13.9356 3.68371 13.8069 3.51636 13.642 3.39878C13.4771 3.2812 13.2833 3.21867 13.0852 3.2191C12.8196 3.21967 12.5651 3.33322 12.3776 3.5348C12.1902 3.73638 12.0851 4.00947 12.0856 4.29402ZM4.35493 9.08251C4.3596 11.6187 6.282 13.67 8.64861 13.6651C11.0152 13.6603 12.9311 11.6008 12.9266 9.06462C12.9221 6.52846 10.9992 4.47663 8.63225 4.48164C6.26531 4.48664 4.35042 6.5467 4.35493 9.08251ZM5.85833 9.07929C5.85724 8.48971 6.01935 7.91302 6.32416 7.42216C6.62898 6.93129 7.0628 6.54829 7.57077 6.32159C8.07875 6.09489 8.63806 6.03467 9.17798 6.14855C9.71789 6.26242 10.2142 6.54528 10.604 6.96135C10.9939 7.37742 11.2599 7.90802 11.3683 8.48604C11.4767 9.06407 11.4227 9.66356 11.2132 10.2087C11.0036 10.7539 10.6478 11.2202 10.1909 11.5487C9.73398 11.8772 9.19638 12.0532 8.6461 12.0544C8.28072 12.0552 7.91876 11.9789 7.5809 11.8298C7.24304 11.6807 6.93591 11.4618 6.67703 11.1855C6.41815 10.9093 6.2126 10.5811 6.07213 10.2197C5.93166 9.85827 5.859 9.47077 5.85833 9.07929Z" fill="#989898"/>
</svg>
