<svg width="20" height="20" viewBox="0 0 20 20" fill="none" xmlns="http://www.w3.org/2000/svg">
<path d="M3.59961 17.4606L5.12357 16.2415L5.13478 16.2329C5.45249 15.9787 5.61281 15.8504 5.79168 15.759C5.95216 15.677 6.12328 15.6173 6.2998 15.5811C6.49877 15.5403 6.70603 15.5403 7.12207 15.5403H15.8031C16.921 15.5403 17.4806 15.5403 17.908 15.3225C18.2843 15.1308 18.5905 14.8245 18.7822 14.4482C19 14.0208 19 13.4618 19 12.3439V4.73719C19 3.61928 19 3.05949 18.7822 2.63208C18.5905 2.25576 18.2837 1.95002 17.9074 1.75827C17.4796 1.54028 16.9203 1.54028 15.8002 1.54028H4.2002C3.08009 1.54028 2.51962 1.54028 2.0918 1.75827C1.71547 1.95002 1.40973 2.25576 1.21799 2.63208C1 3.0599 1 3.62037 1 4.74048V16.2115C1 17.2772 1 17.8099 1.21846 18.0836C1.40845 18.3216 1.69644 18.4601 2.00098 18.4597C2.35115 18.4594 2.76744 18.1264 3.59961 17.4606Z" stroke="#293843" stroke-width="2" stroke-linecap="round" stroke-linejoin="round"/>
</svg>
