<svg width="19" height="21" viewBox="0 0 19 21" fill="none" xmlns="http://www.w3.org/2000/svg">
<path d="M12.6877 15.7778V16.8333C12.6877 18.5822 11.2606 20 9.50015 20C7.73971 20 6.31259 18.5822 6.31259 16.8333V15.7778M12.6877 15.7778H6.31259M12.6877 15.7778H16.5027C16.9091 15.7778 17.1133 15.7778 17.2779 15.7226C17.5922 15.6173 17.8382 15.3721 17.9443 15.0598C18 14.8956 18 14.6921 18 14.2852C18 14.1071 17.9998 14.018 17.9858 13.9331C17.9593 13.7727 17.8966 13.6206 17.8011 13.4885C17.7507 13.4187 17.6866 13.355 17.5602 13.2295L17.1463 12.8183C17.0128 12.6856 16.9378 12.5057 16.9378 12.3181V8.38889C16.9378 4.30811 13.6078 0.99999 9.50015 1C5.39247 1.00001 2.06252 4.30813 2.06252 8.38889V12.3181C2.06252 12.5057 1.98734 12.6856 1.8538 12.8183L1.43995 13.2294C1.31319 13.3554 1.24974 13.4187 1.19922 13.4885C1.10376 13.6206 1.04053 13.7727 1.01403 13.9331C1 14.018 1 14.1071 1 14.2852C1 14.6921 1 14.8956 1.05573 15.0597C1.16177 15.372 1.40885 15.6173 1.72322 15.7226C1.8878 15.7778 2.09122 15.7778 2.49768 15.7778H6.31259" stroke="#293843" stroke-width="1.7" stroke-linecap="round" stroke-linejoin="round"/>
</svg>
