<svg width="15" height="16" viewBox="0 0 15 16" fill="none" xmlns="http://www.w3.org/2000/svg">
<path d="M5.68341 2.40799C5.46405 1.8596 4.93293 1.5 4.34231 1.5H2.35569C1.59995 1.5 0.987305 2.11251 0.987305 2.86827C0.987305 9.29222 6.19495 14.5 12.6187 14.5C13.3745 14.5 13.987 13.8873 13.987 13.1315L13.9873 11.1445C13.9873 10.5539 13.6278 10.0228 13.0794 9.80349L11.1754 9.04213C10.6828 8.84509 10.1219 8.93377 9.71437 9.27342L9.22297 9.68327C8.64907 10.1615 7.80464 10.1235 7.2764 9.59524L5.89267 8.21021C5.36443 7.68195 5.32539 6.83819 5.80364 6.26428L6.21341 5.77289C6.55305 5.3653 6.64251 4.80428 6.44548 4.31168L5.68341 2.40799Z" stroke="#989898" stroke-width="1.67143" stroke-linecap="round" stroke-linejoin="round"/>
</svg>
