<svg width="16" height="14" viewBox="0 0 16 14" fill="none" xmlns="http://www.w3.org/2000/svg">
<path d="M1.73944 2.28571L6.33322 5.90964L6.33475 5.91096C6.84483 6.30172 7.10002 6.49722 7.37953 6.57274C7.62659 6.63949 7.88628 6.63949 8.13334 6.57274C8.4131 6.49715 8.66903 6.30109 9.18001 5.90964C9.18001 5.90964 12.1265 3.54752 13.7736 2.28571M0.987305 9.98587V4.01444C0.987305 3.13436 0.987305 2.69399 1.15126 2.35784C1.29548 2.06216 1.52544 1.82193 1.80849 1.67128C2.13027 1.5 2.55182 1.5 3.39429 1.5H12.1191C12.9615 1.5 13.3822 1.5 13.704 1.67128C13.987 1.82193 14.2178 2.06216 14.362 2.35784C14.5258 2.69366 14.5258 3.1335 14.5258 4.01186V9.98853C14.5258 10.8669 14.5258 11.3061 14.362 11.6419C14.2178 11.9376 13.987 12.1782 13.704 12.3289C13.3825 12.5 12.9621 12.5 12.1213 12.5H3.39182C2.55099 12.5 2.12995 12.5 1.80849 12.3289C1.52544 12.1782 1.29548 11.9376 1.15126 11.6419C0.987305 11.3058 0.987305 10.866 0.987305 9.98587Z" stroke="#989898" stroke-width="1.52308" stroke-linecap="round" stroke-linejoin="round"/>
</svg>
