<svg width="20" height="21" viewBox="0 0 20 21" fill="none" xmlns="http://www.w3.org/2000/svg">
<path d="M5.50977 18.3018C6.83126 19.0639 8.36453 19.5 9.99964 19.5C14.9702 19.5 19 15.4706 19 10.5C19 5.52944 14.9706 1.5 10 1.5C5.02944 1.5 1 5.52944 1 10.5C1 12.1351 1.43604 13.6684 2.19819 14.9899L2.20114 14.995C2.27448 15.1221 2.31146 15.1863 2.32821 15.2469C2.34401 15.304 2.34842 15.3554 2.34437 15.4146C2.34003 15.4781 2.3186 15.544 2.27468 15.6758L1.50586 17.9823L1.50489 17.9853C1.34268 18.4719 1.26157 18.7152 1.31938 18.8774C1.36979 19.0187 1.48169 19.1303 1.62305 19.1807C1.78482 19.2384 2.02705 19.1577 2.51155 18.9962L2.51758 18.9939L4.82405 18.2251C4.95537 18.1813 5.02214 18.1591 5.08559 18.1548C5.14475 18.1507 5.19578 18.1561 5.25293 18.1719C5.31368 18.1887 5.37783 18.2257 5.50563 18.2994L5.50977 18.3018Z" stroke="#293843" stroke-width="2" stroke-linecap="round" stroke-linejoin="round"/>
</svg>
