<svg width="18" height="18" viewBox="0 0 18 18" fill="none" xmlns="http://www.w3.org/2000/svg">
<path fill-rule="evenodd" clip-rule="evenodd" d="M16.4052 17.6735L12.3415 13.6099C9.17199 16.1078 4.60491 15.7028 1.92451 12.6861C-0.756008 9.66938 -0.620861 5.08635 2.23274 2.23275C5.08623 -0.620846 9.66936 -0.755993 12.686 1.92441C15.7028 4.60482 16.1078 9.172 13.6099 12.3414L17.6735 16.4052C17.9371 16.6233 18.0543 16.9718 17.9761 17.3049C17.8981 17.638 17.638 17.8981 17.3049 17.9762C16.9718 18.0543 16.6232 17.9371 16.4052 17.6735ZM1.79178 7.62292C1.79178 9.9654 3.19482 12.081 5.35344 12.9927C7.51217 13.9046 10.007 13.4354 11.6869 11.8016C11.7041 11.7807 11.722 11.761 11.7406 11.7424C11.7595 11.7235 11.7793 11.7055 11.8 11.6883C13.6338 9.8043 13.9797 6.92607 12.6445 4.66123C11.3093 2.39638 8.62337 1.30531 6.08702 1.99754C3.55067 2.68966 1.79145 4.99387 1.79178 7.62292Z" fill="#989898"/>
</svg>
