<svg width="20" height="19" viewBox="0 0 20 19" fill="none" xmlns="http://www.w3.org/2000/svg">
<path d="M17.5409 6.72579L17.2107 6.54211C17.1594 6.51359 17.1342 6.49927 17.1095 6.48444C16.8632 6.33695 16.6557 6.13317 16.5043 5.88937C16.489 5.86484 16.4747 5.83912 16.4453 5.78827C16.416 5.73749 16.4011 5.71176 16.3875 5.68629C16.2516 5.43265 16.1781 5.14999 16.1737 4.86229C16.1733 4.83337 16.1734 4.80382 16.1744 4.74507L16.1808 4.36165C16.1912 3.74808 16.1963 3.44035 16.1101 3.16417C16.0335 2.91886 15.9054 2.69291 15.7343 2.50116C15.5409 2.28441 15.2732 2.12978 14.7372 1.82091L14.2919 1.56435C13.7574 1.25634 13.4901 1.10228 13.2063 1.04355C12.9553 0.99159 12.6962 0.993998 12.446 1.05015C12.1637 1.11353 11.8997 1.2716 11.372 1.58757L11.369 1.589L11.05 1.78002C10.9996 1.81022 10.9741 1.82545 10.9488 1.8395C10.6979 1.979 10.4178 2.05613 10.1309 2.06534C10.1019 2.06627 10.0725 2.06627 10.0137 2.06627C9.95526 2.06627 9.92458 2.06627 9.89573 2.06534C9.60819 2.05609 9.32751 1.97854 9.07623 1.83847C9.0509 1.82435 9.02585 1.809 8.9753 1.77866L8.65426 1.58592C8.12297 1.26696 7.85693 1.10724 7.57304 1.04355C7.32188 0.987197 7.06191 0.985638 6.80995 1.03827C6.52545 1.09769 6.25804 1.25289 5.72322 1.56329L5.72084 1.56435L5.28116 1.81953L5.2763 1.82251C4.74629 2.13012 4.48065 2.28429 4.28887 2.50016C4.11868 2.69171 3.99147 2.91731 3.91533 3.16197C3.82927 3.43852 3.83386 3.74692 3.84423 4.36338L3.85067 4.74625C3.85165 4.80423 3.85334 4.83304 3.85292 4.86156C3.84865 5.14984 3.7742 5.43308 3.63795 5.68717C3.62448 5.7123 3.60996 5.73743 3.58097 5.78762C3.55195 5.83785 3.5379 5.86283 3.52286 5.88707C3.37073 6.13217 3.16226 6.33714 2.91449 6.48488C2.88998 6.49949 2.86416 6.51355 2.81341 6.54167L2.48742 6.72232C1.94504 7.02289 1.67392 7.17331 1.47663 7.38736C1.30211 7.57672 1.17026 7.80134 1.08979 8.04596C0.998812 8.32248 0.998889 8.63256 1.0003 9.25265L1.00145 9.75947C1.00285 10.3754 1.00477 10.6832 1.09594 10.9578C1.17661 11.2008 1.30749 11.4241 1.48104 11.6123C1.6772 11.8251 1.94563 11.9746 2.4839 12.274L2.80698 12.4537C2.86196 12.4843 2.88963 12.4994 2.91615 12.5154C3.16167 12.6632 3.3685 12.8676 3.51933 13.1113C3.53563 13.1377 3.55127 13.165 3.58255 13.2196C3.61344 13.2736 3.62925 13.3006 3.64354 13.3276C3.77577 13.578 3.84658 13.8562 3.85141 14.1393C3.85193 14.1699 3.85148 14.2008 3.85043 14.263L3.84423 14.6304C3.83379 15.249 3.82924 15.5586 3.91581 15.8359C3.99239 16.0813 4.1204 16.3072 4.29151 16.499C4.48493 16.7157 4.75306 16.8702 5.28909 17.1791L5.73421 17.4356C6.26873 17.7436 6.53589 17.8975 6.81967 17.9562C7.07072 18.0082 7.32994 18.0062 7.58008 17.95C7.8628 17.8866 8.12771 17.7279 8.6569 17.4111L8.97591 17.2201C9.02638 17.1898 9.05193 17.1747 9.07722 17.1606C9.32812 17.0211 9.60793 16.9436 9.89485 16.9344C9.92376 16.9335 9.95317 16.9335 10.012 16.9335C10.0709 16.9335 10.1003 16.9335 10.1293 16.9344C10.4169 16.9436 10.6984 17.0214 10.9497 17.1615C10.9718 17.1738 10.9939 17.1871 11.0328 17.2105L11.372 17.4141C11.9033 17.7331 12.1688 17.8924 12.4527 17.9561C12.7039 18.0124 12.964 18.0147 13.216 17.9621C13.5004 17.9027 13.7684 17.7472 14.3029 17.4369L14.7492 17.1779C15.2795 16.8701 15.5454 16.7158 15.7373 16.4998C15.9075 16.3083 16.0349 16.0828 16.111 15.8381C16.1964 15.5636 16.1913 15.2576 16.1811 14.65L16.1744 14.2537C16.1734 14.1958 16.1733 14.1669 16.1737 14.1384C16.178 13.8501 16.2512 13.5667 16.3875 13.3126C16.4009 13.2875 16.4155 13.2622 16.4444 13.2121C16.4735 13.1619 16.4885 13.1369 16.5035 13.1126C16.6556 12.8675 16.8643 12.6624 17.1121 12.5147C17.1363 12.5002 17.1612 12.4864 17.2108 12.459L17.2125 12.4582L17.5385 12.2775C18.0808 11.977 18.3525 11.8264 18.5498 11.6123C18.7243 11.423 18.856 11.1987 18.9364 10.954C19.0269 10.6791 19.0262 10.3709 19.0248 9.75802L19.0236 9.24032C19.0222 8.62437 19.0214 8.31665 18.9303 8.042C18.8496 7.79902 18.718 7.57572 18.5444 7.3875C18.3485 7.17495 18.0797 7.02542 17.5424 6.72656L17.5409 6.72579Z" stroke="#293843" stroke-width="1.6" stroke-linecap="round" stroke-linejoin="round"/>
<path d="M6.40641 9.50006C6.40641 11.4918 8.02106 13.1065 10.0128 13.1065C12.0046 13.1065 13.6193 11.4918 13.6193 9.50006C13.6193 7.50829 12.0046 5.89364 10.0128 5.89364C8.02106 5.89364 6.40641 7.50829 6.40641 9.50006Z" stroke="#293843" stroke-width="1.6" stroke-linecap="round" stroke-linejoin="round"/>
</svg>
