<svg width="20" height="19" viewBox="0 0 20 19" fill="none" xmlns="http://www.w3.org/2000/svg">
<path d="M1.14528 7.94229C0.86285 7.68111 1.01627 7.20895 1.39827 7.16365L6.81113 6.52163C6.96682 6.50317 7.10205 6.4054 7.16772 6.26303L9.45079 1.31341C9.61191 0.964097 10.1085 0.964029 10.2696 1.31334L12.5527 6.26293C12.6184 6.4053 12.7527 6.50333 12.9084 6.52179L18.3216 7.16365C18.7036 7.20895 18.8566 7.68125 18.5741 7.94243L14.5727 11.6435C14.4576 11.75 14.4064 11.9084 14.4369 12.0622L15.4989 17.4084C15.5739 17.7857 15.1723 18.0781 14.8366 17.8902L10.0804 15.2271C9.94355 15.1505 9.77734 15.1509 9.64054 15.2275L4.88377 17.8895C4.54809 18.0774 4.1458 17.7857 4.22077 17.4084L5.28291 12.0625C5.31347 11.9087 5.26235 11.7499 5.14724 11.6435L1.14528 7.94229Z" stroke="#293843" stroke-width="1.6" stroke-linecap="round" stroke-linejoin="round"/>
</svg>
