<svg width="19" height="19" viewBox="0 0 19 19" fill="none" xmlns="http://www.w3.org/2000/svg">
<path fill-rule="evenodd" clip-rule="evenodd" d="M15.6493 2.63702C13.9437 0.937358 11.6751 0.000862334 9.25807 0C4.27749 0 0.224035 4.03357 0.222302 8.99156C0.221436 10.5765 0.637786 12.1235 1.42846 13.4869L0.146484 18.147L4.93646 16.8966C6.25611 17.6132 7.74215 17.9904 9.25419 17.9909H9.25807C14.2378 17.9909 18.2917 13.9569 18.2934 8.99888C18.2943 6.59602 17.3554 4.33711 15.6493 2.63745V2.63702ZM9.25807 16.4723H9.25505C7.90764 16.4719 6.58583 16.1114 5.43254 15.4306L5.15828 15.2685L2.31575 16.0105L3.07437 13.2523L2.89587 12.9695C2.14418 11.7795 1.7469 10.404 1.74776 8.99201C1.7495 4.87133 5.11842 1.51857 9.26115 1.51857C11.267 1.51943 13.1526 2.29769 14.5705 3.71063C15.9886 5.12314 16.7689 7.00131 16.768 8.99803C16.7662 13.1191 13.3973 16.4719 9.25807 16.4719V16.4723ZM13.3774 10.8749C13.1517 10.7624 12.0417 10.2191 11.8346 10.1441C11.6275 10.069 11.4772 10.0316 11.3268 10.2566C11.1765 10.4817 10.7437 10.9879 10.612 11.1375C10.4803 11.2875 10.3486 11.3061 10.1228 11.1935C9.89715 11.081 9.16971 10.8439 8.30712 10.0785C7.63604 9.48264 7.18282 8.7471 7.05115 8.522C6.91944 8.29696 7.03729 8.17535 7.1499 8.06368C7.25127 7.9628 7.37563 7.80111 7.4887 7.67003C7.60181 7.53894 7.63906 7.44498 7.71442 7.29534C7.78983 7.14529 7.75213 7.01426 7.69582 6.90168C7.63947 6.78916 7.18806 5.68319 6.99958 5.2335C6.8163 4.79544 6.63004 4.85495 6.49182 4.84762C6.36011 4.84115 6.20979 4.83986 6.05902 4.83986C5.90825 4.83986 5.66387 4.89591 5.45679 5.12098C5.24971 5.34602 4.66654 5.88973 4.66654 6.99524C4.66654 8.10076 5.47544 9.16965 5.58851 9.3197C5.70157 9.46975 7.18065 11.739 9.44524 12.7125C9.9838 12.9441 10.4045 13.0825 10.7324 13.186C11.2731 13.3571 11.7653 13.333 12.1543 13.2752C12.588 13.2105 13.49 12.7315 13.6781 12.2068C13.8661 11.682 13.8661 11.2319 13.8098 11.1383C13.7535 11.0448 13.6027 10.9883 13.377 10.8758L13.3774 10.8749Z" fill="#989898"/>
</svg>
