<svg width="19" height="12" viewBox="0 0 19 12" fill="none" xmlns="http://www.w3.org/2000/svg">
<path fill-rule="evenodd" clip-rule="evenodd" d="M2.66596 0.736084H0.680681C0.113453 0.736084 0 1.00059 0 1.29218C0 1.81305 0.673059 4.39626 3.13387 7.81278C4.77441 10.146 7.08576 11.4108 9.18905 11.4108C10.451 11.4108 10.6071 11.1299 10.6071 10.646V8.88255C10.6071 8.32073 10.7267 8.20859 11.1262 8.20859C11.4207 8.20859 11.9255 8.35444 13.1033 9.47938C14.4495 10.8126 14.6714 11.4108 15.4285 11.4108H17.4138C17.981 11.4108 18.2646 11.1299 18.101 10.5755C17.922 10.023 17.2793 9.22133 16.4265 8.27112C15.9638 7.72946 15.2697 7.14618 15.0594 6.85448C14.7649 6.47951 14.849 6.31282 15.0594 5.97954C15.0594 5.97954 17.4781 2.60466 17.7305 1.45893C17.8567 1.04222 17.7305 0.736084 17.1302 0.736084H15.1449C14.6401 0.736084 14.4074 1.00059 14.2811 1.29218C14.2811 1.29218 13.2716 3.7296 11.8414 5.31288C11.3786 5.77116 11.1683 5.91701 10.9159 5.91701C10.7897 5.91701 10.6071 5.77116 10.6071 5.35457V1.45893C10.6071 0.958904 10.4606 0.736084 10.0399 0.736084H6.92011C6.6047 0.736084 6.41495 0.968118 6.41495 1.18807C6.41495 1.66203 7.13005 1.77136 7.20377 3.10463V6.00039C7.20377 6.63525 7.08797 6.75037 6.83562 6.75037C6.16259 6.75037 4.52545 4.30205 3.55448 1.50056C3.36422 0.956039 3.17333 0.736084 2.66596 0.736084Z" fill="#989898"/>
</svg>
